<?xml version="1.0" encoding="UTF-8" standalone="no"?>
<!DOCTYPE svg PUBLIC "-//W3C//DTD SVG 1.1//EN"
 "http://www.w3.org/Graphics/SVG/1.1/DTD/svg11.dtd">
<!-- Generated by graphviz version 2.38.0 (20140413.2041)
 -->
<!-- Title: oneDegreeRelationshipsDiagramImplied Pages: 1 -->
<svg width="333pt" height="179pt"
 viewBox="0.00 0.00 333.00 179.00" xmlns="http://www.w3.org/2000/svg" xmlns:xlink="http://www.w3.org/1999/xlink">
<g id="graph0" class="graph" transform="scale(1 1) rotate(0) translate(4 175)">
<title>oneDegreeRelationshipsDiagramImplied</title>
<polygon fill="#ffffff" stroke="none" points="-4,4 -4,-175 329,-175 329,4 -4,4"/>
<text text-anchor="middle" x="80.5" y="-7.2" font-family="Helvetica,sans-Serif" font-size="11.00">Generated by SchemaSpy</text>
<!-- user -->
<g id="node1" class="node"><title>user</title>
<g id="a_node1"><a xlink:href="../../tables/user.html" xlink:title="user" target="_top">
<polygon fill="#ffffff" stroke="none" points="230,-43 230,-167 317,-167 317,-43 230,-43"/>
<polygon fill="#f5f5f5" stroke="none" points="230.5,-145 230.5,-167 317.5,-167 317.5,-145 230.5,-145"/>
<polygon fill="none" stroke="black" points="230.5,-145 230.5,-167 317.5,-167 317.5,-145 230.5,-145"/>
<text text-anchor="start" x="234" y="-154.2" font-family="Helvetica,sans-Serif" font-weight="bold" font-size="11.00">user</text>
<text text-anchor="start" x="275.5" y="-153.2" font-family="Helvetica,sans-Serif" font-size="11.00">[table]</text>
<polygon fill="none" stroke="black" points="230.5,-123 230.5,-145 317.5,-145 317.5,-123 230.5,-123"/>
<image xlink:href="../../images/primaryKeys.png" width="11px" height="12px" preserveAspectRatio="xMinYMin meet" x="235.5" y="-140"/>
<text text-anchor="start" x="257.5" y="-131.2" font-family="Helvetica,sans-Serif" font-size="11.00">userId</text>
<polygon fill="none" stroke="black" points="230.5,-101 230.5,-123 317.5,-123 317.5,-101 230.5,-101"/>
<image xlink:href="../../images/foreignKeys.png" width="11px" height="12px" preserveAspectRatio="xMinYMin meet" x="235.5" y="-118"/>
<text text-anchor="start" x="257.5" y="-109.2" font-family="Helvetica,sans-Serif" font-size="11.00">groupId</text>
<polygon fill="#ffffff" stroke="none" points="230.5,-79 230.5,-101 317.5,-101 317.5,-79 230.5,-79"/>
<polygon fill="none" stroke="black" points="230.5,-79 230.5,-101 317.5,-101 317.5,-79 230.5,-79"/>
<text text-anchor="start" x="257.5" y="-87.2" font-family="Helvetica,sans-Serif" font-size="11.00">email</text>
<polygon fill="none" stroke="black" points="230.5,-61 230.5,-79 317.5,-79 317.5,-61 230.5,-61"/>
<text text-anchor="start" x="233.5" y="-67.2" font-family="Helvetica,sans-Serif" font-size="11.00">...</text>
<polygon fill="#ffffff" stroke="none" points="230.5,-43 230.5,-61 258.5,-61 258.5,-43 230.5,-43"/>
<polygon fill="none" stroke="black" points="230.5,-43 230.5,-61 258.5,-61 258.5,-43 230.5,-43"/>
<text text-anchor="start" x="233.5" y="-49.2" font-family="Helvetica,sans-Serif" font-size="11.00">&lt; 1</text>
<polygon fill="#ffffff" stroke="none" points="258.5,-43 258.5,-61 303.5,-61 303.5,-43 258.5,-43"/>
<polygon fill="none" stroke="black" points="258.5,-43 258.5,-61 303.5,-61 303.5,-43 258.5,-43"/>
<text text-anchor="start" x="261.5" y="-49.2" font-family="Helvetica,sans-Serif" font-size="11.00">0 rows</text>
<polygon fill="#ffffff" stroke="none" points="303.5,-43 303.5,-61 317.5,-61 317.5,-43 303.5,-43"/>
<polygon fill="none" stroke="black" points="303.5,-43 303.5,-61 317.5,-61 317.5,-43 303.5,-43"/>
<text text-anchor="start" x="306.5" y="-49.2" font-family="Helvetica,sans-Serif" font-size="11.00"> &#160;</text>
</a>
</g>
</g>
<!-- group -->
<g id="node2" class="node"><title>group</title>
<g id="a_node2"><a xlink:href="../../tables/group.html" xlink:title="group" target="_top">
<polygon fill="#ffffff" stroke="none" points="8,-37 8,-147 181,-147 181,-37 8,-37"/>
<polygon fill="#f5f5f5" stroke="none" points="10.5,-123 10.5,-145 179.5,-145 179.5,-123 10.5,-123"/>
<polygon fill="none" stroke="black" points="10.5,-123 10.5,-145 179.5,-145 179.5,-123 10.5,-123"/>
<text text-anchor="start" x="15" y="-132.2" font-family="Helvetica,sans-Serif" font-weight="bold" font-size="11.00">group</text>
<text text-anchor="start" x="137.5" y="-131.2" font-family="Helvetica,sans-Serif" font-size="11.00">[table]</text>
<polygon fill="none" stroke="black" points="10.5,-101 10.5,-123 107.5,-123 107.5,-101 10.5,-101"/>
<image xlink:href="../../images/primaryKeys.png" width="11px" height="12px" preserveAspectRatio="xMinYMin meet" x="15.5" y="-118"/>
<text text-anchor="start" x="30.5" y="-109.2" font-family="Helvetica,sans-Serif" font-size="11.00">groupId</text>
<polygon fill="none" stroke="black" points="107.5,-101 107.5,-123 179.5,-123 179.5,-101 107.5,-101"/>
<text text-anchor="start" x="110.5" y="-109.2" font-family="Helvetica,sans-Serif" font-size="11.00">int[10]</text>
<polygon fill="#ffffff" stroke="none" points="10.5,-79 10.5,-101 107.5,-101 107.5,-79 10.5,-79"/>
<polygon fill="none" stroke="black" points="10.5,-79 10.5,-101 107.5,-101 107.5,-79 10.5,-79"/>
<text text-anchor="start" x="30.5" y="-87.2" font-family="Helvetica,sans-Serif" font-size="11.00">name</text>
<polygon fill="none" stroke="black" points="107.5,-79 107.5,-101 179.5,-101 179.5,-79 107.5,-79"/>
<text text-anchor="start" x="110.5" y="-87.2" font-family="Helvetica,sans-Serif" font-size="11.00">varchar[16]</text>
<polygon fill="none" stroke="black" points="10.5,-57 10.5,-79 107.5,-79 107.5,-57 10.5,-57"/>
<text text-anchor="start" x="30.5" y="-65.2" font-family="Helvetica,sans-Serif" font-size="11.00">description</text>
<polygon fill="none" stroke="black" points="107.5,-57 107.5,-79 179.5,-79 179.5,-57 107.5,-57"/>
<text text-anchor="start" x="110.5" y="-65.2" font-family="Helvetica,sans-Serif" font-size="11.00">varchar[80]</text>
<polygon fill="#ffffff" stroke="none" points="10.5,-39 10.5,-57 50.5,-57 50.5,-39 10.5,-39"/>
<polygon fill="none" stroke="black" points="10.5,-39 10.5,-57 50.5,-57 50.5,-39 10.5,-39"/>
<text text-anchor="start" x="13.5" y="-45.2" font-family="Helvetica,sans-Serif" font-size="11.00">&lt; 0</text>
<polygon fill="#ffffff" stroke="none" points="50.5,-39 50.5,-57 107.5,-57 107.5,-39 50.5,-39"/>
<polygon fill="none" stroke="black" points="50.5,-39 50.5,-57 107.5,-57 107.5,-39 50.5,-39"/>
<text text-anchor="start" x="65.5" y="-45.2" font-family="Helvetica,sans-Serif" font-size="11.00">0 rows</text>
<polygon fill="#ffffff" stroke="none" points="107.5,-39 107.5,-57 179.5,-57 179.5,-39 107.5,-39"/>
<polygon fill="none" stroke="black" points="107.5,-39 107.5,-57 179.5,-57 179.5,-39 107.5,-39"/>
<text text-anchor="start" x="154.5" y="-45.2" font-family="Helvetica,sans-Serif" font-size="11.00">1 &gt;</text>
<polygon fill="none" stroke="black" stroke-width="2" points="9,-38 9,-146 180,-146 180,-38 9,-38"/>
</a>
</g>
</g>
<!-- user&#45;&gt;group -->
<g id="edge1" class="edge"><title>user:groupId:w&#45;&gt;group:groupId.type:e</title>
<path fill="none" stroke="black" stroke-dasharray="5,2" d="M214.991,-112C203.677,-112 196.493,-112 180.5,-112"/>
<polygon fill="black" stroke="black" points="221.5,-112 229.5,-115.6 225.5,-112 229.5,-112 229.5,-112 229.5,-112 225.5,-112 229.5,-108.4 221.5,-112 221.5,-112"/>
<ellipse fill="none" stroke="black" cx="218.3" cy="-112" rx="3.2" ry="3.2"/>
</g>
</g>
</svg>
