<?xml version="1.0" encoding="UTF-8" standalone="no"?>
<!DOCTYPE svg PUBLIC "-//W3C//DTD SVG 1.1//EN"
 "http://www.w3.org/Graphics/SVG/1.1/DTD/svg11.dtd">
<!-- Generated by graphviz version 2.38.0 (20140413.2041)
 -->
<!-- Title: oneDegreeRelationshipsDiagram Pages: 1 -->
<svg width="197pt" height="159pt"
 viewBox="0.00 0.00 197.00 159.00" xmlns="http://www.w3.org/2000/svg" xmlns:xlink="http://www.w3.org/1999/xlink">
<g id="graph0" class="graph" transform="scale(1 1) rotate(0) translate(4 155)">
<title>oneDegreeRelationshipsDiagram</title>
<polygon fill="#ffffff" stroke="none" points="-4,4 -4,-155 193,-155 193,4 -4,4"/>
<text text-anchor="middle" x="80.5" y="-7.2" font-family="Helvetica,sans-Serif" font-size="11.00">Generated by SchemaSpy</text>
<!-- group -->
<g id="node1" class="node"><title>group</title>
<g id="a_node1"><a xlink:href="../../tables/group.html" xlink:title="group" target="_top">
<polygon fill="#ffffff" stroke="none" points="8,-37 8,-147 181,-147 181,-37 8,-37"/>
<polygon fill="#f5f5f5" stroke="none" points="10.5,-123 10.5,-145 179.5,-145 179.5,-123 10.5,-123"/>
<polygon fill="none" stroke="black" points="10.5,-123 10.5,-145 179.5,-145 179.5,-123 10.5,-123"/>
<text text-anchor="start" x="15" y="-132.2" font-family="Helvetica,sans-Serif" font-weight="bold" font-size="11.00">group</text>
<text text-anchor="start" x="137.5" y="-131.2" font-family="Helvetica,sans-Serif" font-size="11.00">[table]</text>
<polygon fill="none" stroke="black" points="10.5,-101 10.5,-123 107.5,-123 107.5,-101 10.5,-101"/>
<image xlink:href="../../images/primaryKeys.png" width="11px" height="12px" preserveAspectRatio="xMinYMin meet" x="15.5" y="-118"/>
<text text-anchor="start" x="30.5" y="-109.2" font-family="Helvetica,sans-Serif" font-size="11.00">groupId</text>
<polygon fill="none" stroke="black" points="107.5,-101 107.5,-123 179.5,-123 179.5,-101 107.5,-101"/>
<text text-anchor="start" x="110.5" y="-109.2" font-family="Helvetica,sans-Serif" font-size="11.00">int[10]</text>
<polygon fill="#ffffff" stroke="none" points="10.5,-79 10.5,-101 107.5,-101 107.5,-79 10.5,-79"/>
<polygon fill="none" stroke="black" points="10.5,-79 10.5,-101 107.5,-101 107.5,-79 10.5,-79"/>
<text text-anchor="start" x="30.5" y="-87.2" font-family="Helvetica,sans-Serif" font-size="11.00">name</text>
<polygon fill="none" stroke="black" points="107.5,-79 107.5,-101 179.5,-101 179.5,-79 107.5,-79"/>
<text text-anchor="start" x="110.5" y="-87.2" font-family="Helvetica,sans-Serif" font-size="11.00">varchar[16]</text>
<polygon fill="none" stroke="black" points="10.5,-57 10.5,-79 107.5,-79 107.5,-57 10.5,-57"/>
<text text-anchor="start" x="30.5" y="-65.2" font-family="Helvetica,sans-Serif" font-size="11.00">description</text>
<polygon fill="none" stroke="black" points="107.5,-57 107.5,-79 179.5,-79 179.5,-57 107.5,-57"/>
<text text-anchor="start" x="110.5" y="-65.2" font-family="Helvetica,sans-Serif" font-size="11.00">varchar[80]</text>
<polygon fill="#ffffff" stroke="none" points="10.5,-39 10.5,-57 50.5,-57 50.5,-39 10.5,-39"/>
<polygon fill="none" stroke="black" points="10.5,-39 10.5,-57 50.5,-57 50.5,-39 10.5,-39"/>
<text text-anchor="start" x="13.5" y="-45.2" font-family="Helvetica,sans-Serif" font-size="11.00">&lt; 0</text>
<polygon fill="#ffffff" stroke="none" points="50.5,-39 50.5,-57 107.5,-57 107.5,-39 50.5,-39"/>
<polygon fill="none" stroke="black" points="50.5,-39 50.5,-57 107.5,-57 107.5,-39 50.5,-39"/>
<text text-anchor="start" x="65.5" y="-45.2" font-family="Helvetica,sans-Serif" font-size="11.00">0 rows</text>
<polygon fill="#ffffff" stroke="none" points="107.5,-39 107.5,-57 179.5,-57 179.5,-39 107.5,-39"/>
<polygon fill="none" stroke="black" points="107.5,-39 107.5,-57 179.5,-57 179.5,-39 107.5,-39"/>
<text text-anchor="start" x="154.5" y="-45.2" font-family="Helvetica,sans-Serif" font-size="11.00">0 &gt;</text>
<polygon fill="none" stroke="black" stroke-width="2" points="9,-38 9,-146 180,-146 180,-38 9,-38"/>
</a>
</g>
</g>
</g>
</svg>
