<?xml version="1.0" encoding="UTF-8" standalone="no"?>
<!DOCTYPE svg PUBLIC "-//W3C//DTD SVG 1.1//EN"
 "http://www.w3.org/Graphics/SVG/1.1/DTD/svg11.dtd">
<!-- Generated by graphviz version 2.38.0 (20140413.2041)
 -->
<!-- Title: oneDegreeRelationshipsDiagramImplied Pages: 1 -->
<svg width="319pt" height="181pt"
 viewBox="0.00 0.00 319.00 181.00" xmlns="http://www.w3.org/2000/svg" xmlns:xlink="http://www.w3.org/1999/xlink">
<g id="graph0" class="graph" transform="scale(1 1) rotate(0) translate(4 177)">
<title>oneDegreeRelationshipsDiagramImplied</title>
<polygon fill="#ffffff" stroke="none" points="-4,4 -4,-177 315,-177 315,4 -4,4"/>
<text text-anchor="middle" x="80.5" y="-7.2" font-family="Helvetica,sans-Serif" font-size="11.00">Generated by SchemaSpy</text>
<!-- user -->
<g id="node1" class="node"><title>user</title>
<g id="a_node1"><a xlink:href="../../tables/user.html" xlink:title="user" target="_top">
<polygon fill="#ffffff" stroke="none" points="154,-37 154,-169 303,-169 303,-37 154,-37"/>
<polygon fill="#f5f5f5" stroke="none" points="156.5,-145 156.5,-167 301.5,-167 301.5,-145 156.5,-145"/>
<polygon fill="none" stroke="black" points="156.5,-145 156.5,-167 301.5,-167 301.5,-145 156.5,-145"/>
<text text-anchor="start" x="160" y="-154.2" font-family="Helvetica,sans-Serif" font-weight="bold" font-size="11.00">user</text>
<text text-anchor="start" x="259.5" y="-153.2" font-family="Helvetica,sans-Serif" font-size="11.00">[table]</text>
<polygon fill="none" stroke="black" points="156.5,-123 156.5,-145 229.5,-145 229.5,-123 156.5,-123"/>
<image xlink:href="../../images/primaryKeys.png" width="11px" height="12px" preserveAspectRatio="xMinYMin meet" x="161.5" y="-140"/>
<text text-anchor="start" x="176.5" y="-131.2" font-family="Helvetica,sans-Serif" font-size="11.00">userId</text>
<polygon fill="none" stroke="black" points="229.5,-123 229.5,-145 301.5,-145 301.5,-123 229.5,-123"/>
<text text-anchor="start" x="232.5" y="-131.2" font-family="Helvetica,sans-Serif" font-size="11.00">int[10]</text>
<polygon fill="none" stroke="black" points="156.5,-101 156.5,-123 229.5,-123 229.5,-101 156.5,-101"/>
<image xlink:href="../../images/foreignKeys.png" width="11px" height="12px" preserveAspectRatio="xMinYMin meet" x="161.5" y="-118"/>
<text text-anchor="start" x="176.5" y="-109.2" font-family="Helvetica,sans-Serif" font-size="11.00">groupId</text>
<polygon fill="none" stroke="black" points="229.5,-101 229.5,-123 301.5,-123 301.5,-101 229.5,-101"/>
<text text-anchor="start" x="232.5" y="-109.2" font-family="Helvetica,sans-Serif" font-size="11.00">int[10]</text>
<polygon fill="none" stroke="black" points="156.5,-79 156.5,-101 229.5,-101 229.5,-79 156.5,-79"/>
<text text-anchor="start" x="176.5" y="-87.2" font-family="Helvetica,sans-Serif" font-size="11.00">name</text>
<polygon fill="none" stroke="black" points="229.5,-79 229.5,-101 301.5,-101 301.5,-79 229.5,-79"/>
<text text-anchor="start" x="232.5" y="-87.2" font-family="Helvetica,sans-Serif" font-size="11.00">varchar[16]</text>
<polygon fill="#ffffff" stroke="none" points="156.5,-57 156.5,-79 229.5,-79 229.5,-57 156.5,-57"/>
<polygon fill="none" stroke="black" points="156.5,-57 156.5,-79 229.5,-79 229.5,-57 156.5,-57"/>
<text text-anchor="start" x="176.5" y="-65.2" font-family="Helvetica,sans-Serif" font-size="11.00">email</text>
<polygon fill="none" stroke="black" points="229.5,-57 229.5,-79 301.5,-79 301.5,-57 229.5,-57"/>
<text text-anchor="start" x="232.5" y="-65.2" font-family="Helvetica,sans-Serif" font-size="11.00">varchar[40]</text>
<polygon fill="#ffffff" stroke="none" points="156.5,-39 156.5,-57 184.5,-57 184.5,-39 156.5,-39"/>
<polygon fill="none" stroke="black" points="156.5,-39 156.5,-57 184.5,-57 184.5,-39 156.5,-39"/>
<text text-anchor="start" x="159.5" y="-45.2" font-family="Helvetica,sans-Serif" font-size="11.00">&lt; 1</text>
<polygon fill="#ffffff" stroke="none" points="184.5,-39 184.5,-57 229.5,-57 229.5,-39 184.5,-39"/>
<polygon fill="none" stroke="black" points="184.5,-39 184.5,-57 229.5,-57 229.5,-39 184.5,-39"/>
<text text-anchor="start" x="187.5" y="-45.2" font-family="Helvetica,sans-Serif" font-size="11.00">0 rows</text>
<polygon fill="#ffffff" stroke="none" points="229.5,-39 229.5,-57 301.5,-57 301.5,-39 229.5,-39"/>
<polygon fill="none" stroke="black" points="229.5,-39 229.5,-57 301.5,-57 301.5,-39 229.5,-39"/>
<text text-anchor="start" x="276.5" y="-45.2" font-family="Helvetica,sans-Serif" font-size="11.00">0 &gt;</text>
<polygon fill="none" stroke="black" stroke-width="2" points="155,-38 155,-168 302,-168 302,-38 155,-38"/>
</a>
</g>
</g>
<!-- group -->
<g id="node2" class="node"><title>group</title>
<g id="a_node2"><a xlink:href="../../tables/group.html" xlink:title="group" target="_top">
<polygon fill="#ffffff" stroke="none" points="8,-43 8,-145 105,-145 105,-43 8,-43"/>
<polygon fill="#f5f5f5" stroke="none" points="8.5,-123 8.5,-145 105.5,-145 105.5,-123 8.5,-123"/>
<polygon fill="none" stroke="black" points="8.5,-123 8.5,-145 105.5,-145 105.5,-123 8.5,-123"/>
<text text-anchor="start" x="13" y="-132.2" font-family="Helvetica,sans-Serif" font-weight="bold" font-size="11.00">group</text>
<text text-anchor="start" x="63.5" y="-131.2" font-family="Helvetica,sans-Serif" font-size="11.00">[table]</text>
<polygon fill="none" stroke="black" points="8.5,-101 8.5,-123 105.5,-123 105.5,-101 8.5,-101"/>
<image xlink:href="../../images/primaryKeys.png" width="11px" height="12px" preserveAspectRatio="xMinYMin meet" x="13.5" y="-118"/>
<text text-anchor="start" x="28.5" y="-109.2" font-family="Helvetica,sans-Serif" font-size="11.00">groupId</text>
<polygon fill="#ffffff" stroke="none" points="8.5,-79 8.5,-101 105.5,-101 105.5,-79 8.5,-79"/>
<polygon fill="none" stroke="black" points="8.5,-79 8.5,-101 105.5,-101 105.5,-79 8.5,-79"/>
<text text-anchor="start" x="28.5" y="-87.2" font-family="Helvetica,sans-Serif" font-size="11.00">name</text>
<polygon fill="none" stroke="black" points="8.5,-61 8.5,-79 105.5,-79 105.5,-61 8.5,-61"/>
<text text-anchor="start" x="11.5" y="-67.2" font-family="Helvetica,sans-Serif" font-size="11.00">...</text>
<polygon fill="#ffffff" stroke="none" points="8.5,-43 8.5,-61 27.5,-61 27.5,-43 8.5,-43"/>
<polygon fill="none" stroke="black" points="8.5,-43 8.5,-61 27.5,-61 27.5,-43 8.5,-43"/>
<text text-anchor="start" x="11.5" y="-49.2" font-family="Helvetica,sans-Serif" font-size="11.00"> &#160;</text>
<polygon fill="#ffffff" stroke="none" points="27.5,-43 27.5,-61 74.5,-61 74.5,-43 27.5,-43"/>
<polygon fill="none" stroke="black" points="27.5,-43 27.5,-61 74.5,-61 74.5,-43 27.5,-43"/>
<text text-anchor="start" x="32.5" y="-49.2" font-family="Helvetica,sans-Serif" font-size="11.00">0 rows</text>
<polygon fill="#ffffff" stroke="none" points="74.5,-43 74.5,-61 105.5,-61 105.5,-43 74.5,-43"/>
<polygon fill="none" stroke="black" points="74.5,-43 74.5,-61 105.5,-61 105.5,-43 74.5,-43"/>
<text text-anchor="start" x="80.5" y="-49.2" font-family="Helvetica,sans-Serif" font-size="11.00">1 &gt;</text>
</a>
</g>
</g>
<!-- user&#45;&gt;group -->
<g id="edge1" class="edge"><title>user:groupId:w&#45;&gt;group:groupId:e</title>
<path fill="none" stroke="black" stroke-dasharray="5,2" d="M140.991,-112C129.677,-112 122.493,-112 106.5,-112"/>
<polygon fill="black" stroke="black" points="147.5,-112 155.5,-115.6 151.5,-112 155.5,-112 155.5,-112 155.5,-112 151.5,-112 155.5,-108.4 147.5,-112 147.5,-112"/>
<ellipse fill="none" stroke="black" cx="144.3" cy="-112" rx="3.2" ry="3.2"/>
</g>
</g>
</svg>
