<?xml version="1.0" encoding="UTF-8" standalone="no"?>
<!DOCTYPE svg PUBLIC "-//W3C//DTD SVG 1.1//EN"
 "http://www.w3.org/Graphics/SVG/1.1/DTD/svg11.dtd">
<!-- Generated by graphviz version 2.38.0 (20140413.2041)
 -->
<!-- Title: oneDegreeRelationshipsDiagram Pages: 1 -->
<svg width="218pt" height="119pt"
 viewBox="0.00 0.00 218.00 119.00" xmlns="http://www.w3.org/2000/svg" xmlns:xlink="http://www.w3.org/1999/xlink">
<g id="graph0" class="graph" transform="scale(1 1) rotate(0) translate(4 115)">
<title>oneDegreeRelationshipsDiagram</title>
<polygon fill="#ffffff" stroke="none" points="-4,4 -4,-115 214,-115 214,4 -4,4"/>
<text text-anchor="middle" x="80.5" y="-7.2" font-family="Helvetica,sans-Serif" font-size="11.00">Generated by SchemaSpy</text>
<!-- userAndGroup -->
<g id="node1" class="node"><title>userAndGroup</title>
<g id="a_node1"><a xlink:href="../../tables/userAndGroup.html" xlink:title="userAndGroup" target="_top">
<polygon fill="#ffffff" stroke="none" points="8,-37 8,-107 202,-107 202,-37 8,-37"/>
<polygon fill="#f5f5f5" stroke="none" points="10,-83 10,-105 200,-105 200,-83 10,-83"/>
<polygon fill="none" stroke="black" points="10,-83 10,-105 200,-105 200,-83 10,-83"/>
<text text-anchor="start" x="15" y="-92.2" font-family="Helvetica,sans-Serif" font-weight="bold" font-size="11.00">userAndGroup</text>
<text text-anchor="start" x="161" y="-91.2" font-family="Helvetica,sans-Serif" font-size="11.00">[view]</text>
<polygon fill="none" stroke="black" points="10,-61 10,-83 128,-83 128,-61 10,-61"/>
<text text-anchor="start" x="30" y="-69.2" font-family="Helvetica,sans-Serif" font-size="11.00">UserName</text>
<polygon fill="none" stroke="black" points="128,-61 128,-83 200,-83 200,-61 128,-61"/>
<text text-anchor="start" x="131" y="-69.2" font-family="Helvetica,sans-Serif" font-size="11.00">varchar[16]</text>
<polygon fill="none" stroke="black" points="10,-39 10,-61 128,-61 128,-39 10,-39"/>
<text text-anchor="start" x="30" y="-47.2" font-family="Helvetica,sans-Serif" font-size="11.00">GroupName</text>
<polygon fill="none" stroke="black" points="128,-39 128,-61 200,-61 200,-39 128,-39"/>
<text text-anchor="start" x="131" y="-47.2" font-family="Helvetica,sans-Serif" font-size="11.00">varchar[16]</text>
<polygon fill="none" stroke="black" stroke-width="2" points="9,-38 9,-106 201,-106 201,-38 9,-38"/>
</a>
</g>
</g>
</g>
</svg>
