<?xml version="1.0" encoding="UTF-8" standalone="no"?>
<!DOCTYPE svg PUBLIC "-//W3C//DTD SVG 1.1//EN"
 "http://www.w3.org/Graphics/SVG/1.1/DTD/svg11.dtd">
<!-- Generated by graphviz version 2.38.0 (20140413.2041)
 -->
<!-- Title: oneDegreeRelationshipsDiagram Pages: 1 -->
<svg width="173pt" height="181pt"
 viewBox="0.00 0.00 173.00 181.00" xmlns="http://www.w3.org/2000/svg" xmlns:xlink="http://www.w3.org/1999/xlink">
<g id="graph0" class="graph" transform="scale(1 1) rotate(0) translate(4 177)">
<title>oneDegreeRelationshipsDiagram</title>
<polygon fill="#ffffff" stroke="none" points="-4,4 -4,-177 169,-177 169,4 -4,4"/>
<text text-anchor="middle" x="80.5" y="-7.2" font-family="Helvetica,sans-Serif" font-size="11.00">Generated by SchemaSpy</text>
<!-- user -->
<g id="node1" class="node"><title>user</title>
<g id="a_node1"><a xlink:href="../../tables/user.html" xlink:title="user" target="_top">
<polygon fill="#ffffff" stroke="none" points="8,-37 8,-169 157,-169 157,-37 8,-37"/>
<polygon fill="#f5f5f5" stroke="none" points="10.5,-145 10.5,-167 155.5,-167 155.5,-145 10.5,-145"/>
<polygon fill="none" stroke="black" points="10.5,-145 10.5,-167 155.5,-167 155.5,-145 10.5,-145"/>
<text text-anchor="start" x="14" y="-154.2" font-family="Helvetica,sans-Serif" font-weight="bold" font-size="11.00">user</text>
<text text-anchor="start" x="113.5" y="-153.2" font-family="Helvetica,sans-Serif" font-size="11.00">[table]</text>
<polygon fill="none" stroke="black" points="10.5,-123 10.5,-145 83.5,-145 83.5,-123 10.5,-123"/>
<image xlink:href="../../images/primaryKeys.png" width="11px" height="12px" preserveAspectRatio="xMinYMin meet" x="15.5" y="-140"/>
<text text-anchor="start" x="30.5" y="-131.2" font-family="Helvetica,sans-Serif" font-size="11.00">userId</text>
<polygon fill="none" stroke="black" points="83.5,-123 83.5,-145 155.5,-145 155.5,-123 83.5,-123"/>
<text text-anchor="start" x="86.5" y="-131.2" font-family="Helvetica,sans-Serif" font-size="11.00">int[10]</text>
<polygon fill="none" stroke="black" points="10.5,-101 10.5,-123 83.5,-123 83.5,-101 10.5,-101"/>
<image xlink:href="../../images/foreignKeys.png" width="11px" height="12px" preserveAspectRatio="xMinYMin meet" x="15.5" y="-118"/>
<text text-anchor="start" x="30.5" y="-109.2" font-family="Helvetica,sans-Serif" font-size="11.00">groupId</text>
<polygon fill="none" stroke="black" points="83.5,-101 83.5,-123 155.5,-123 155.5,-101 83.5,-101"/>
<text text-anchor="start" x="86.5" y="-109.2" font-family="Helvetica,sans-Serif" font-size="11.00">int[10]</text>
<polygon fill="none" stroke="black" points="10.5,-79 10.5,-101 83.5,-101 83.5,-79 10.5,-79"/>
<text text-anchor="start" x="30.5" y="-87.2" font-family="Helvetica,sans-Serif" font-size="11.00">name</text>
<polygon fill="none" stroke="black" points="83.5,-79 83.5,-101 155.5,-101 155.5,-79 83.5,-79"/>
<text text-anchor="start" x="86.5" y="-87.2" font-family="Helvetica,sans-Serif" font-size="11.00">varchar[16]</text>
<polygon fill="#ffffff" stroke="none" points="10.5,-57 10.5,-79 83.5,-79 83.5,-57 10.5,-57"/>
<polygon fill="none" stroke="black" points="10.5,-57 10.5,-79 83.5,-79 83.5,-57 10.5,-57"/>
<text text-anchor="start" x="30.5" y="-65.2" font-family="Helvetica,sans-Serif" font-size="11.00">email</text>
<polygon fill="none" stroke="black" points="83.5,-57 83.5,-79 155.5,-79 155.5,-57 83.5,-57"/>
<text text-anchor="start" x="86.5" y="-65.2" font-family="Helvetica,sans-Serif" font-size="11.00">varchar[40]</text>
<polygon fill="#ffffff" stroke="none" points="10.5,-39 10.5,-57 38.5,-57 38.5,-39 10.5,-39"/>
<polygon fill="none" stroke="black" points="10.5,-39 10.5,-57 38.5,-57 38.5,-39 10.5,-39"/>
<text text-anchor="start" x="13.5" y="-45.2" font-family="Helvetica,sans-Serif" font-size="11.00">&lt; 0</text>
<polygon fill="#ffffff" stroke="none" points="38.5,-39 38.5,-57 83.5,-57 83.5,-39 38.5,-39"/>
<polygon fill="none" stroke="black" points="38.5,-39 38.5,-57 83.5,-57 83.5,-39 38.5,-39"/>
<text text-anchor="start" x="41.5" y="-45.2" font-family="Helvetica,sans-Serif" font-size="11.00">0 rows</text>
<polygon fill="#ffffff" stroke="none" points="83.5,-39 83.5,-57 155.5,-57 155.5,-39 83.5,-39"/>
<polygon fill="none" stroke="black" points="83.5,-39 83.5,-57 155.5,-57 155.5,-39 83.5,-39"/>
<text text-anchor="start" x="130.5" y="-45.2" font-family="Helvetica,sans-Serif" font-size="11.00">0 &gt;</text>
<polygon fill="none" stroke="black" stroke-width="2" points="9,-38 9,-168 156,-168 156,-38 9,-38"/>
</a>
</g>
</g>
</g>
</svg>
