<?xml version="1.0" encoding="UTF-8" standalone="no"?>
<!DOCTYPE svg PUBLIC "-//W3C//DTD SVG 1.1//EN"
 "http://www.w3.org/Graphics/SVG/1.1/DTD/svg11.dtd">
<!-- Generated by graphviz version 2.38.0 (20140413.2041)
 -->
<!-- Title: group Pages: 1 -->
<svg width="197pt" height="126pt"
 viewBox="0.00 0.00 197.00 126.00" xmlns="http://www.w3.org/2000/svg" xmlns:xlink="http://www.w3.org/1999/xlink">
<g id="graph0" class="graph" transform="scale(1 1) rotate(0) translate(4 122)">
<title>group</title>
<polygon fill="#ffffff" stroke="none" points="-4,4 -4,-122 193,-122 193,4 -4,4"/>
<!-- group -->
<g id="node1" class="node"><title>group</title>
<g id="a_node1"><a xlink:href="../../tables/group.html" xlink:title="group" target="_top">
<polygon fill="#ffffff" stroke="none" points="8,-4 8,-114 181,-114 181,-4 8,-4"/>
<polygon fill="#f5f5f5" stroke="none" points="10.5,-90 10.5,-112 179.5,-112 179.5,-90 10.5,-90"/>
<polygon fill="none" stroke="black" points="10.5,-90 10.5,-112 179.5,-112 179.5,-90 10.5,-90"/>
<text text-anchor="start" x="15" y="-99.2" font-family="Helvetica,sans-Serif" font-weight="bold" font-size="11.00">group</text>
<text text-anchor="start" x="137.5" y="-98.2" font-family="Helvetica,sans-Serif" font-size="11.00">[table]</text>
<polygon fill="none" stroke="black" points="10.5,-68 10.5,-90 107.5,-90 107.5,-68 10.5,-68"/>
<image xlink:href="../../images/primaryKeys.png" width="11px" height="12px" preserveAspectRatio="xMinYMin meet" x="15.5" y="-85"/>
<text text-anchor="start" x="30.5" y="-76.2" font-family="Helvetica,sans-Serif" font-size="11.00">groupId</text>
<polygon fill="none" stroke="black" points="107.5,-68 107.5,-90 179.5,-90 179.5,-68 107.5,-68"/>
<text text-anchor="start" x="110.5" y="-76.2" font-family="Helvetica,sans-Serif" font-size="11.00">int[10]</text>
<polygon fill="#ffffff" stroke="none" points="10.5,-46 10.5,-68 107.5,-68 107.5,-46 10.5,-46"/>
<polygon fill="none" stroke="black" points="10.5,-46 10.5,-68 107.5,-68 107.5,-46 10.5,-46"/>
<text text-anchor="start" x="30.5" y="-54.2" font-family="Helvetica,sans-Serif" font-size="11.00">name</text>
<polygon fill="none" stroke="black" points="107.5,-46 107.5,-68 179.5,-68 179.5,-46 107.5,-46"/>
<text text-anchor="start" x="110.5" y="-54.2" font-family="Helvetica,sans-Serif" font-size="11.00">varchar[16]</text>
<polygon fill="none" stroke="black" points="10.5,-24 10.5,-46 107.5,-46 107.5,-24 10.5,-24"/>
<text text-anchor="start" x="30.5" y="-32.2" font-family="Helvetica,sans-Serif" font-size="11.00">description</text>
<polygon fill="none" stroke="black" points="107.5,-24 107.5,-46 179.5,-46 179.5,-24 107.5,-24"/>
<text text-anchor="start" x="110.5" y="-32.2" font-family="Helvetica,sans-Serif" font-size="11.00">varchar[80]</text>
<polygon fill="#ffffff" stroke="none" points="10.5,-6 10.5,-24 50.5,-24 50.5,-6 10.5,-6"/>
<polygon fill="none" stroke="black" points="10.5,-6 10.5,-24 50.5,-24 50.5,-6 10.5,-6"/>
<text text-anchor="start" x="13.5" y="-12.2" font-family="Helvetica,sans-Serif" font-size="11.00">&lt; 0</text>
<polygon fill="#ffffff" stroke="none" points="50.5,-6 50.5,-24 107.5,-24 107.5,-6 50.5,-6"/>
<polygon fill="none" stroke="black" points="50.5,-6 50.5,-24 107.5,-24 107.5,-6 50.5,-6"/>
<text text-anchor="start" x="65.5" y="-12.2" font-family="Helvetica,sans-Serif" font-size="11.00">0 rows</text>
<polygon fill="#ffffff" stroke="none" points="107.5,-6 107.5,-24 179.5,-24 179.5,-6 107.5,-6"/>
<polygon fill="none" stroke="black" points="107.5,-6 107.5,-24 179.5,-24 179.5,-6 107.5,-6"/>
<text text-anchor="start" x="154.5" y="-12.2" font-family="Helvetica,sans-Serif" font-size="11.00">0 &gt;</text>
<polygon fill="none" stroke="black" stroke-width="2" points="9,-5 9,-113 180,-113 180,-5 9,-5"/>
</a>
</g>
</g>
</g>
</svg>
