<?xml version="1.0" encoding="UTF-8" standalone="no"?>
<!DOCTYPE svg PUBLIC "-//W3C//DTD SVG 1.1//EN"
 "http://www.w3.org/Graphics/SVG/1.1/DTD/svg11.dtd">
<!-- Generated by graphviz version 2.38.0 (20140413.2041)
 -->
<!-- Title: largeImpliedRelationshipsDiagram Pages: 1 -->
<svg width="246pt" height="177pt"
 viewBox="0.00 0.00 246.00 177.00" xmlns="http://www.w3.org/2000/svg" xmlns:xlink="http://www.w3.org/1999/xlink">
<g id="graph0" class="graph" transform="scale(1 1) rotate(0) translate(4 173)">
<title>largeImpliedRelationshipsDiagram</title>
<polygon fill="#ffffff" stroke="none" points="-4,4 -4,-173 242,-173 242,4 -4,4"/>
<text text-anchor="middle" x="80.5" y="-7.2" font-family="Helvetica,sans-Serif" font-size="11.00">Generated by SchemaSpy</text>
<!-- group -->
<g id="node1" class="node"><title>group</title>
<g id="a_node1"><a xlink:href="../../tables/group.html" xlink:title="group" target="_top">
<polygon fill="#ffffff" stroke="none" points="8,-37 8,-143 105,-143 105,-37 8,-37"/>
<polygon fill="#f5f5f5" stroke="none" points="8.5,-121 8.5,-143 105.5,-143 105.5,-121 8.5,-121"/>
<polygon fill="none" stroke="black" points="8.5,-121 8.5,-143 105.5,-143 105.5,-121 8.5,-121"/>
<text text-anchor="start" x="13" y="-130.2" font-family="Helvetica,sans-Serif" font-weight="bold" font-size="11.00">group</text>
<text text-anchor="start" x="63.5" y="-129.2" font-family="Helvetica,sans-Serif" font-size="11.00">[table]</text>
<polygon fill="none" stroke="black" points="8.5,-99 8.5,-121 105.5,-121 105.5,-99 8.5,-99"/>
<image xlink:href="../../images/primaryKeys.png" width="11px" height="12px" preserveAspectRatio="xMinYMin meet" x="13.5" y="-116"/>
<text text-anchor="start" x="28.5" y="-107.2" font-family="Helvetica,sans-Serif" font-size="11.00">groupId</text>
<polygon fill="#ffffff" stroke="none" points="8.5,-77 8.5,-99 105.5,-99 105.5,-77 8.5,-77"/>
<polygon fill="none" stroke="black" points="8.5,-77 8.5,-99 105.5,-99 105.5,-77 8.5,-77"/>
<text text-anchor="start" x="28.5" y="-85.2" font-family="Helvetica,sans-Serif" font-size="11.00">name</text>
<polygon fill="none" stroke="black" points="8.5,-55 8.5,-77 105.5,-77 105.5,-55 8.5,-55"/>
<text text-anchor="start" x="28.5" y="-63.2" font-family="Helvetica,sans-Serif" font-size="11.00">description</text>
<polygon fill="#ffffff" stroke="none" points="8.5,-37 8.5,-55 34.5,-55 34.5,-37 8.5,-37"/>
<polygon fill="none" stroke="black" points="8.5,-37 8.5,-55 34.5,-55 34.5,-37 8.5,-37"/>
<text text-anchor="start" x="11.5" y="-43.2" font-family="Helvetica,sans-Serif" font-size="11.00"> &#160;</text>
<polygon fill="#ffffff" stroke="none" points="34.5,-37 34.5,-55 85.5,-55 85.5,-37 34.5,-37"/>
<polygon fill="none" stroke="black" points="34.5,-37 34.5,-55 85.5,-55 85.5,-37 34.5,-37"/>
<text text-anchor="start" x="43.5" y="-43.2" font-family="Helvetica,sans-Serif" font-size="11.00">0 rows</text>
<polygon fill="#ffffff" stroke="none" points="85.5,-37 85.5,-55 105.5,-55 105.5,-37 85.5,-37"/>
<polygon fill="none" stroke="black" points="85.5,-37 85.5,-55 105.5,-55 105.5,-37 85.5,-37"/>
<text text-anchor="start" x="94.5" y="-43.2" font-family="Helvetica,sans-Serif" font-size="11.00"> &#160;</text>
</a>
</g>
</g>
<!-- user -->
<g id="node2" class="node"><title>user</title>
<g id="a_node2"><a xlink:href="../../tables/user.html" xlink:title="user" target="_top">
<polygon fill="#ffffff" stroke="none" points="154,-37 154,-165 230,-165 230,-37 154,-37"/>
<polygon fill="#f5f5f5" stroke="none" points="154,-143 154,-165 230,-165 230,-143 154,-143"/>
<polygon fill="none" stroke="black" points="154,-143 154,-165 230,-165 230,-143 154,-143"/>
<text text-anchor="start" x="157.5" y="-152.2" font-family="Helvetica,sans-Serif" font-weight="bold" font-size="11.00">user</text>
<text text-anchor="start" x="188" y="-151.2" font-family="Helvetica,sans-Serif" font-size="11.00">[table]</text>
<polygon fill="none" stroke="black" points="154,-121 154,-143 230,-143 230,-121 154,-121"/>
<image xlink:href="../../images/primaryKeys.png" width="11px" height="12px" preserveAspectRatio="xMinYMin meet" x="159" y="-138"/>
<text text-anchor="start" x="176" y="-129.2" font-family="Helvetica,sans-Serif" font-size="11.00">userId</text>
<polygon fill="none" stroke="black" points="154,-99 154,-121 230,-121 230,-99 154,-99"/>
<image xlink:href="../../images/foreignKeys.png" width="11px" height="12px" preserveAspectRatio="xMinYMin meet" x="159" y="-116"/>
<text text-anchor="start" x="176" y="-107.2" font-family="Helvetica,sans-Serif" font-size="11.00">groupId</text>
<polygon fill="none" stroke="black" points="154,-77 154,-99 230,-99 230,-77 154,-77"/>
<text text-anchor="start" x="176" y="-85.2" font-family="Helvetica,sans-Serif" font-size="11.00">name</text>
<polygon fill="#ffffff" stroke="none" points="154,-55 154,-77 230,-77 230,-55 154,-55"/>
<polygon fill="none" stroke="black" points="154,-55 154,-77 230,-77 230,-55 154,-55"/>
<text text-anchor="start" x="176" y="-63.2" font-family="Helvetica,sans-Serif" font-size="11.00">email</text>
<polygon fill="#ffffff" stroke="none" points="154,-37 154,-55 169,-55 169,-37 154,-37"/>
<polygon fill="none" stroke="black" points="154,-37 154,-55 169,-55 169,-37 154,-37"/>
<text text-anchor="start" x="157" y="-43.2" font-family="Helvetica,sans-Serif" font-size="11.00"> &#160;</text>
<polygon fill="#ffffff" stroke="none" points="169,-37 169,-55 215,-55 215,-37 169,-37"/>
<polygon fill="none" stroke="black" points="169,-37 169,-55 215,-55 215,-37 169,-37"/>
<text text-anchor="start" x="173" y="-43.2" font-family="Helvetica,sans-Serif" font-size="11.00">0 rows</text>
<polygon fill="#ffffff" stroke="none" points="215,-37 215,-55 230,-55 230,-37 215,-37"/>
<polygon fill="none" stroke="black" points="215,-37 215,-55 230,-55 230,-37 215,-37"/>
<text text-anchor="start" x="219" y="-43.2" font-family="Helvetica,sans-Serif" font-size="11.00"> &#160;</text>
</a>
</g>
</g>
<!-- user&#45;&gt;group -->
<g id="edge1" class="edge"><title>user:groupId:w&#45;&gt;group:groupId:e</title>
<path fill="none" stroke="black" stroke-dasharray="5,2" d="M138.551,-110C128.201,-110 121.354,-110 106.5,-110"/>
<polygon fill="black" stroke="black" points="145,-110 153,-113.6 149,-110 153,-110 153,-110 153,-110 149,-110 153,-106.4 145,-110 145,-110"/>
<ellipse fill="none" stroke="black" cx="141.8" cy="-110" rx="3.2" ry="3.2"/>
</g>
</g>
</svg>
