<?xml version="1.0" encoding="UTF-8" standalone="no"?>
<!DOCTYPE svg PUBLIC "-//W3C//DTD SVG 1.1//EN"
 "http://www.w3.org/Graphics/SVG/1.1/DTD/svg11.dtd">
<!-- Generated by graphviz version 2.38.0 (20140413.2041)
 -->
<!-- Title: compactImpliedRelationshipsDiagram Pages: 1 -->
<svg width="246pt" height="173pt"
 viewBox="0.00 0.00 246.00 173.00" xmlns="http://www.w3.org/2000/svg" xmlns:xlink="http://www.w3.org/1999/xlink">
<g id="graph0" class="graph" transform="scale(1 1) rotate(0) translate(4 169)">
<title>compactImpliedRelationshipsDiagram</title>
<polygon fill="#ffffff" stroke="none" points="-4,4 -4,-169 242,-169 242,4 -4,4"/>
<text text-anchor="middle" x="80.5" y="-7.2" font-family="Helvetica,sans-Serif" font-size="11.00">Generated by SchemaSpy</text>
<!-- group -->
<g id="node1" class="node"><title>group</title>
<g id="a_node1"><a xlink:href="../../tables/group.html" xlink:title="group" target="_top">
<polygon fill="#ffffff" stroke="none" points="8,-37 8,-139 105,-139 105,-37 8,-37"/>
<polygon fill="#f5f5f5" stroke="none" points="8.5,-117 8.5,-139 105.5,-139 105.5,-117 8.5,-117"/>
<polygon fill="none" stroke="black" points="8.5,-117 8.5,-139 105.5,-139 105.5,-117 8.5,-117"/>
<text text-anchor="start" x="13" y="-126.2" font-family="Helvetica,sans-Serif" font-weight="bold" font-size="11.00">group</text>
<text text-anchor="start" x="63.5" y="-125.2" font-family="Helvetica,sans-Serif" font-size="11.00">[table]</text>
<polygon fill="none" stroke="black" points="8.5,-95 8.5,-117 105.5,-117 105.5,-95 8.5,-95"/>
<image xlink:href="../../images/primaryKeys.png" width="11px" height="12px" preserveAspectRatio="xMinYMin meet" x="13.5" y="-112"/>
<text text-anchor="start" x="28.5" y="-103.2" font-family="Helvetica,sans-Serif" font-size="11.00">groupId</text>
<polygon fill="#ffffff" stroke="none" points="8.5,-73 8.5,-95 105.5,-95 105.5,-73 8.5,-73"/>
<polygon fill="none" stroke="black" points="8.5,-73 8.5,-95 105.5,-95 105.5,-73 8.5,-73"/>
<text text-anchor="start" x="28.5" y="-81.2" font-family="Helvetica,sans-Serif" font-size="11.00">name</text>
<polygon fill="none" stroke="black" points="8.5,-55 8.5,-73 105.5,-73 105.5,-55 8.5,-55"/>
<text text-anchor="start" x="11.5" y="-61.2" font-family="Helvetica,sans-Serif" font-size="11.00">...</text>
<polygon fill="#ffffff" stroke="none" points="8.5,-37 8.5,-55 34.5,-55 34.5,-37 8.5,-37"/>
<polygon fill="none" stroke="black" points="8.5,-37 8.5,-55 34.5,-55 34.5,-37 8.5,-37"/>
<text text-anchor="start" x="11.5" y="-43.2" font-family="Helvetica,sans-Serif" font-size="11.00"> &#160;</text>
<polygon fill="#ffffff" stroke="none" points="34.5,-37 34.5,-55 85.5,-55 85.5,-37 34.5,-37"/>
<polygon fill="none" stroke="black" points="34.5,-37 34.5,-55 85.5,-55 85.5,-37 34.5,-37"/>
<text text-anchor="start" x="43.5" y="-43.2" font-family="Helvetica,sans-Serif" font-size="11.00">0 rows</text>
<polygon fill="#ffffff" stroke="none" points="85.5,-37 85.5,-55 105.5,-55 105.5,-37 85.5,-37"/>
<polygon fill="none" stroke="black" points="85.5,-37 85.5,-55 105.5,-55 105.5,-37 85.5,-37"/>
<text text-anchor="start" x="94.5" y="-43.2" font-family="Helvetica,sans-Serif" font-size="11.00"> &#160;</text>
</a>
</g>
</g>
<!-- user -->
<g id="node2" class="node"><title>user</title>
<g id="a_node2"><a xlink:href="../../tables/user.html" xlink:title="user" target="_top">
<polygon fill="#ffffff" stroke="none" points="154,-37 154,-161 230,-161 230,-37 154,-37"/>
<polygon fill="#f5f5f5" stroke="none" points="154,-139 154,-161 230,-161 230,-139 154,-139"/>
<polygon fill="none" stroke="black" points="154,-139 154,-161 230,-161 230,-139 154,-139"/>
<text text-anchor="start" x="157.5" y="-148.2" font-family="Helvetica,sans-Serif" font-weight="bold" font-size="11.00">user</text>
<text text-anchor="start" x="188" y="-147.2" font-family="Helvetica,sans-Serif" font-size="11.00">[table]</text>
<polygon fill="none" stroke="black" points="154,-117 154,-139 230,-139 230,-117 154,-117"/>
<image xlink:href="../../images/primaryKeys.png" width="11px" height="12px" preserveAspectRatio="xMinYMin meet" x="159" y="-134"/>
<text text-anchor="start" x="176" y="-125.2" font-family="Helvetica,sans-Serif" font-size="11.00">userId</text>
<polygon fill="none" stroke="black" points="154,-95 154,-117 230,-117 230,-95 154,-95"/>
<image xlink:href="../../images/foreignKeys.png" width="11px" height="12px" preserveAspectRatio="xMinYMin meet" x="159" y="-112"/>
<text text-anchor="start" x="176" y="-103.2" font-family="Helvetica,sans-Serif" font-size="11.00">groupId</text>
<polygon fill="#ffffff" stroke="none" points="154,-73 154,-95 230,-95 230,-73 154,-73"/>
<polygon fill="none" stroke="black" points="154,-73 154,-95 230,-95 230,-73 154,-73"/>
<text text-anchor="start" x="176" y="-81.2" font-family="Helvetica,sans-Serif" font-size="11.00">email</text>
<polygon fill="none" stroke="black" points="154,-55 154,-73 230,-73 230,-55 154,-55"/>
<text text-anchor="start" x="157" y="-61.2" font-family="Helvetica,sans-Serif" font-size="11.00">...</text>
<polygon fill="#ffffff" stroke="none" points="154,-37 154,-55 169,-55 169,-37 154,-37"/>
<polygon fill="none" stroke="black" points="154,-37 154,-55 169,-55 169,-37 154,-37"/>
<text text-anchor="start" x="157" y="-43.2" font-family="Helvetica,sans-Serif" font-size="11.00"> &#160;</text>
<polygon fill="#ffffff" stroke="none" points="169,-37 169,-55 215,-55 215,-37 169,-37"/>
<polygon fill="none" stroke="black" points="169,-37 169,-55 215,-55 215,-37 169,-37"/>
<text text-anchor="start" x="173" y="-43.2" font-family="Helvetica,sans-Serif" font-size="11.00">0 rows</text>
<polygon fill="#ffffff" stroke="none" points="215,-37 215,-55 230,-55 230,-37 215,-37"/>
<polygon fill="none" stroke="black" points="215,-37 215,-55 230,-55 230,-37 215,-37"/>
<text text-anchor="start" x="219" y="-43.2" font-family="Helvetica,sans-Serif" font-size="11.00"> &#160;</text>
</a>
</g>
</g>
<!-- user&#45;&gt;group -->
<g id="edge1" class="edge"><title>user:groupId:w&#45;&gt;group:groupId:e</title>
<path fill="none" stroke="black" stroke-dasharray="5,2" d="M138.551,-106C128.201,-106 121.354,-106 106.5,-106"/>
<polygon fill="black" stroke="black" points="145,-106 153,-109.6 149,-106 153,-106 153,-106 153,-106 149,-106 153,-102.4 145,-106 145,-106"/>
<ellipse fill="none" stroke="black" cx="141.8" cy="-106" rx="3.2" ry="3.2"/>
</g>
</g>
</svg>
